REM DIRINDEX 1\2,1\3,1\4
REM DIRNAME folder01,folder02,folder03,folder04
TITLE ""
FILE "Disc1Track12.mp3" MP3
  TRACK 01 AUDIO
    TITLE "0:"
    INDEX 01 00:00:00
  TRACK 02 AUDIO
    TITLE "4:cjc085_0786"
    INDEX 01 00:05:30
  TRACK 03 AUDIO
    TITLE "0:"
    INDEX 01 00:07:70
  TRACK 04 AUDIO
    TITLE "4:cjc085_0787"
    INDEX 01 00:08:73
  TRACK 05 AUDIO
    TITLE "2:cjc085_0788"
    INDEX 01 00:11:48
  TRACK 06 AUDIO
    TITLE "0:"
    INDEX 01 00:14:66
  TRACK 07 AUDIO
    TITLE "3:cjc085_0789"
    INDEX 01 00:14:70
  TRACK 08 AUDIO
    TITLE "0:"
    INDEX 01 00:18:19
  TRACK 09 AUDIO
    TITLE "4:cjc085_0790"
    INDEX 01 00:18:58
  TRACK 10 AUDIO
    TITLE "2:cjc085_0791"
    INDEX 01 00:21:35
  TRACK 11 AUDIO
    TITLE "0:"
    INDEX 01 00:25:11
  TRACK 12 AUDIO
    TITLE "3:cjc085_0792"
    INDEX 01 00:25:23
  TRACK 13 AUDIO
    TITLE "0:"
    INDEX 01 00:28:49
  TRACK 14 AUDIO
    TITLE "4:cjc085_0793"
    INDEX 01 00:30:03
  TRACK 15 AUDIO
    TITLE "2:cjc085_0794"
    INDEX 01 00:32:33
  TRACK 16 AUDIO
    TITLE "0:"
    INDEX 01 00:35:74
  TRACK 17 AUDIO
    TITLE "3:cjc085_0795"
    INDEX 01 00:36:31
  TRACK 18 AUDIO
    TITLE "0:"
    INDEX 01 00:39:64
  TRACK 19 AUDIO
    TITLE "4:cjc085_0796"
    INDEX 01 00:41:08
  TRACK 20 AUDIO
    TITLE "2:cjc085_0797"
    INDEX 01 00:43:33
  TRACK 21 AUDIO
    TITLE "0:"
    INDEX 01 00:46:54
  TRACK 22 AUDIO
    TITLE "3:cjc085_0798"
    INDEX 01 00:47:54
  TRACK 23 AUDIO
    TITLE "0:"
    INDEX 01 00:50:25
  TRACK 24 AUDIO
    TITLE "4:cjc085_0799"
    INDEX 01 00:51:20
  TRACK 25 AUDIO
    TITLE "2:cjc085_0800"
    INDEX 01 00:53:43
  TRACK 26 AUDIO
    TITLE "0:"
    INDEX 01 01:00:08
  TRACK 27 AUDIO
    TITLE "3:cjc085_0801"
    INDEX 01 01:00:41
  TRACK 28 AUDIO
    TITLE "0:"
    INDEX 01 01:04:54
  TRACK 29 AUDIO
    TITLE "4:cjc085_0802"
    INDEX 01 01:05:48
  TRACK 30 AUDIO
    TITLE "2:cjc085_0803"
    INDEX 01 01:07:63
  TRACK 31 AUDIO
    TITLE "0:"
    INDEX 01 01:13:34
  TRACK 32 AUDIO
    TITLE "3:cjc085_0804"
    INDEX 01 01:13:57
  TRACK 33 AUDIO
    TITLE "0:"
    INDEX 01 01:17:22
  TRACK 34 AUDIO
    TITLE "4:cjc085_0805"
    INDEX 01 01:18:33
  TRACK 35 AUDIO
    TITLE "2:cjc085_0806"
    INDEX 01 01:20:63
  TRACK 36 AUDIO
    TITLE "0:"
    INDEX 01 01:24:49
  TRACK 37 AUDIO
    TITLE "3:cjc085_0807"
    INDEX 01 01:25:33
  TRACK 38 AUDIO
    TITLE "0:"
    INDEX 01 01:29:31
  TRACK 39 AUDIO
    TITLE "4:cjc085_0808"
    INDEX 01 01:30:52
  TRACK 40 AUDIO
    TITLE "2:cjc085_0809"
    INDEX 01 01:32:72
  TRACK 41 AUDIO
    TITLE "0:"
    INDEX 01 01:37:46
  TRACK 42 AUDIO
    TITLE "3:cjc085_0810"
    INDEX 01 01:38:32
  TRACK 43 AUDIO
    TITLE "0:"
    INDEX 01 01:41:65
  TRACK 44 AUDIO
    TITLE "4:cjc085_0811"
    INDEX 01 01:42:45
  TRACK 45 AUDIO
    TITLE "2:cjc085_0812"
    INDEX 01 01:45:08
  TRACK 46 AUDIO
    TITLE "0:"
    INDEX 01 01:48:20
  TRACK 47 AUDIO
    TITLE "3:cjc085_0813"
    INDEX 01 01:49:26
  TRACK 48 AUDIO
    TITLE "0:"
    INDEX 01 01:52:46
  TRACK 49 AUDIO
    TITLE "4:cjc085_0814"
    INDEX 01 01:53:29
  TRACK 50 AUDIO
    TITLE "2:cjc085_0815"
    INDEX 01 01:55:67
  TRACK 51 AUDIO
    TITLE "0:"
    INDEX 01 01:59:01
  TRACK 52 AUDIO
    TITLE "3:cjc085_0816"
    INDEX 01 01:59:32
  TRACK 53 AUDIO
    TITLE "0:"
    INDEX 01 02:03:22
  TRACK 54 AUDIO
    TITLE "4:cjc085_0817"
    INDEX 01 02:03:73
  TRACK 55 AUDIO
    TITLE "2:cjc085_0818"
    INDEX 01 02:06:32
  TRACK 56 AUDIO
    TITLE "0:"
    INDEX 01 02:10:16
  TRACK 57 AUDIO
    TITLE "3:cjc085_0819"
    INDEX 01 02:10:36
  TRACK 58 AUDIO
    TITLE "0:"
    INDEX 01 02:14:16
  TRACK 59 AUDIO
    TITLE "4:cjc085_0820"
    INDEX 01 02:14:71
  TRACK 60 AUDIO
    TITLE "2:cjc085_0821"
    INDEX 01 02:17:10
  TRACK 61 AUDIO
    TITLE "0:"
    INDEX 01 02:21:67
  TRACK 62 AUDIO
    TITLE "3:cjc085_0822"
    INDEX 01 02:22:39
  TRACK 63 AUDIO
    TITLE "0:"
    INDEX 01 02:26:19
  TRACK 64 AUDIO
    TITLE "4:cjc085_0823"
    INDEX 01 02:26:70
  TRACK 65 AUDIO
    TITLE "2:cjc085_0824"
    INDEX 01 02:29:29
  TRACK 66 AUDIO
    TITLE "0:"
    INDEX 01 02:32:37
  TRACK 67 AUDIO
    TITLE "3:cjc085_0825"
    INDEX 01 02:33:62
  TRACK 68 AUDIO
    TITLE "0:"
    INDEX 01 02:37:19
  TRACK 69 AUDIO
    TITLE "4:cjc085_0826"
    INDEX 01 02:38:06
  TRACK 70 AUDIO
    TITLE "2:cjc085_0827"
    INDEX 01 02:40:17
  TRACK 71 AUDIO
    TITLE "0:"
    INDEX 01 02:45:28
  TRACK 72 AUDIO
    TITLE "3:cjc085_0828"
    INDEX 01 02:46:04
  TRACK 73 AUDIO
    TITLE "0:"
    INDEX 01 02:50:18
  TRACK 74 AUDIO
    TITLE "4:cjc085_0829"
    INDEX 01 02:51:13
  TRACK 75 AUDIO
    TITLE "2:cjc085_0830"
    INDEX 01 02:53:47
  TRACK 76 AUDIO
    TITLE "0:"
    INDEX 01 02:58:13
  TRACK 77 AUDIO
    TITLE "3:cjc085_0831"
    INDEX 01 02:59:15
  TRACK 78 AUDIO
    TITLE "0:"
    INDEX 01 03:03:14
  TRACK 79 AUDIO
    TITLE "4:cjc085_0832"
    INDEX 01 03:04:35
  TRACK 80 AUDIO
    TITLE "2:cjc085_0833"
    INDEX 01 03:06:54
  TRACK 81 AUDIO
    TITLE "0:"
    INDEX 01 03:12:58
  TRACK 82 AUDIO
    TITLE "3:cjc085_0834"
    INDEX 01 03:12:68
  TRACK 83 AUDIO
    TITLE "0:"
    INDEX 01 03:17:22
  TRACK 84 AUDIO
    TITLE "4:cjc085_0835"
    INDEX 01 03:17:59
  TRACK 85 AUDIO
    TITLE "2:cjc085_0836"
    INDEX 01 03:20:32
  TRACK 86 AUDIO
    TITLE "0:"
    INDEX 01 03:22:70
  TRACK 87 AUDIO
    TITLE "3:cjc085_0837"
    INDEX 01 03:23:52
  TRACK 88 AUDIO
    TITLE "0:"
    INDEX 01 03:26:25
  TRACK 89 AUDIO
    TITLE "4:cjc085_0838"
    INDEX 01 03:26:62
  TRACK 90 AUDIO
    TITLE "2:cjc085_0839"
    INDEX 01 03:29:10
  TRACK 91 AUDIO
    TITLE "0:"
    INDEX 01 03:31:46
  TRACK 92 AUDIO
    TITLE "3:cjc085_0840"
    INDEX 01 03:32:47
  TRACK 93 AUDIO
    TITLE "0:"
    INDEX 01 03:35:14
  TRACK 94 AUDIO
    TITLE "4:cjc085_0841"
    INDEX 01 03:36:25
  TRACK 95 AUDIO
    TITLE "2:cjc085_0842"
    INDEX 01 03:38:48
  TRACK 96 AUDIO
    TITLE "0:"
    INDEX 01 03:43:04
  TRACK 97 AUDIO
    TITLE "3:cjc085_0843"
    INDEX 01 03:43:35
  TRACK 98 AUDIO
    TITLE "0:"
    INDEX 01 03:47:02
  TRACK 99 AUDIO
    TITLE "4:cjc085_0844"
    INDEX 01 03:48:11
  TRACK 100 AUDIO
    TITLE "2:cjc085_0845"
    INDEX 01 03:50:65
  TRACK 101 AUDIO
    TITLE "0:"
    INDEX 01 03:55:64
  TRACK 102 AUDIO
    TITLE "3:cjc085_0846"
    INDEX 01 03:56:54
  TRACK 103 AUDIO
    TITLE "0:"
    INDEX 01 04:00:67
  TRACK 104 AUDIO
    TITLE "4:cjc085_0847"
    INDEX 01 04:01:10
  TRACK 105 AUDIO
    TITLE "2:cjc085_0848"
    INDEX 01 04:03:52
  TRACK 106 AUDIO
    TITLE "0:"
    INDEX 01 04:07:51
  TRACK 107 AUDIO
    TITLE "3:cjc085_0849"
    INDEX 01 04:08:18
  TRACK 108 AUDIO
    TITLE "0:"
    INDEX 01 04:12:55
  TRACK 109 AUDIO
    TITLE "4:cjc085_0850"
    INDEX 01 04:13:44
  TRACK 110 AUDIO
    TITLE "2:cjc085_0851"
    INDEX 01 04:15:67
  TRACK 111 AUDIO
    TITLE "0:"
    INDEX 01 04:20:25
  TRACK 112 AUDIO
    TITLE "3:cjc085_0852"
    INDEX 01 04:21:16
  TRACK 113 AUDIO
    TITLE "0:"
    INDEX 01 04:24:52
  TRACK 114 AUDIO
    TITLE "4:cjc085_0853"
    INDEX 01 04:25:49
  TRACK 115 AUDIO
    TITLE "2:cjc085_0854"
    INDEX 01 04:28:03
  TRACK 116 AUDIO
    TITLE "0:"
    INDEX 01 04:33:08
  TRACK 117 AUDIO
    TITLE "3:cjc085_0855"
    INDEX 01 04:33:33
  TRACK 118 AUDIO
    TITLE "0:"
    INDEX 01 04:38:32
  TRACK 119 AUDIO
    TITLE "4:cjc085_0856"
    INDEX 01 04:40:33
  TRACK 120 AUDIO
    TITLE "2:cjc085_0857"
    INDEX 01 04:42:44
  TRACK 121 AUDIO
    TITLE "0:"
    INDEX 01 04:47:43
  TRACK 122 AUDIO
    TITLE "3:cjc085_0858"
    INDEX 01 04:48:54
  TRACK 123 AUDIO
    TITLE "0:"
    INDEX 01 04:53:44
  TRACK 124 AUDIO
    TITLE "4:cjc085_0859"
    INDEX 01 04:55:05
  TRACK 125 AUDIO
    TITLE "2:cjc085_0860"
    INDEX 01 04:57:51
  TRACK 126 AUDIO
    TITLE "0:"
    INDEX 01 05:02:19
  TRACK 127 AUDIO
    TITLE "3:cjc085_0861"
    INDEX 01 05:02:58
  TRACK 128 AUDIO
    TITLE "0:"
    INDEX 01 05:06:23
  TRACK 129 AUDIO
    TITLE "4:cjc085_0862"
    INDEX 01 05:07:36
  TRACK 130 AUDIO
    TITLE "2:cjc085_0863"
    INDEX 01 05:09:57
  TRACK 131 AUDIO
    TITLE "0:"
    INDEX 01 05:14:40
  TRACK 132 AUDIO
    TITLE "3:cjc085_0864"
    INDEX 01 05:15:20
  TRACK 133 AUDIO
    TITLE "0:"
    INDEX 01 05:18:67
  TRACK 134 AUDIO
    TITLE "4:cjc085_0865"
    INDEX 01 05:20:03
  TRACK 135 AUDIO
    TITLE "2:cjc085_0866"
    INDEX 01 05:22:40
  TRACK 136 AUDIO
    TITLE "0:"
    INDEX 01 05:25:63
  TRACK 137 AUDIO
    TITLE "3:cjc085_0867"
    INDEX 01 05:26:31
  TRACK 138 AUDIO
    TITLE "0:"
    INDEX 01 05:29:73
  TRACK 139 AUDIO
    TITLE "4:cjc085_0868"
    INDEX 01 05:31:13
  TRACK 140 AUDIO
    TITLE "2:cjc085_0869"
    INDEX 01 05:33:57
  TRACK 141 AUDIO
    TITLE "0:"
    INDEX 01 05:39:32
  TRACK 142 AUDIO
    TITLE "3:cjc085_0870"
    INDEX 01 05:39:40
  TRACK 143 AUDIO
    TITLE "0:"
    INDEX 01 05:43:01
  TRACK 144 AUDIO
    TITLE "4:cjc085_0871"
    INDEX 01 05:44:04
  TRACK 145 AUDIO
    TITLE "2:cjc085_0872"
    INDEX 01 05:46:15
  TRACK 146 AUDIO
    TITLE "0:"
    INDEX 01 05:49:74
  TRACK 147 AUDIO
    TITLE "3:cjc085_0873"
    INDEX 01 05:50:63
  TRACK 148 AUDIO
    TITLE "0:"
    INDEX 01 05:53:24
  TRACK 149 AUDIO
    TITLE "4:cjc085_0874"
    INDEX 01 05:54:47
  TRACK 150 AUDIO
    TITLE "2:cjc085_0875"
    INDEX 01 05:57:10
  TRACK 151 AUDIO
    TITLE "0:"
    INDEX 01 06:00:70
  TRACK 152 AUDIO
    TITLE "3:cjc085_0876"
    INDEX 01 06:01:30
  TRACK 153 AUDIO
    TITLE "0:"
    INDEX 01 06:04:28
  TRACK 154 AUDIO
    TITLE "4:cjc085_0877"
    INDEX 01 06:05:51
  TRACK 155 AUDIO
    TITLE "2:cjc085_0878"
    INDEX 01 06:08:14
  TRACK 156 AUDIO
    TITLE "0:"
    INDEX 01 06:12:47
  TRACK 157 AUDIO
    TITLE "3:cjc085_0879"
    INDEX 01 06:12:53
  TRACK 158 AUDIO
    TITLE "0:"
    INDEX 01 06:15:34
  TRACK 159 AUDIO
    TITLE "4:cjc085_0880"
    INDEX 01 06:16:67
  TRACK 160 AUDIO
    TITLE "2:cjc085_0881"
    INDEX 01 06:19:38
  TRACK 161 AUDIO
    TITLE "0:"
    INDEX 01 06:22:54
  TRACK 162 AUDIO
    TITLE "3:cjc085_0882"
    INDEX 01 06:22:69
  TRACK 163 AUDIO
    TITLE "0:"
    INDEX 01 06:26:02
  TRACK 164 AUDIO
    TITLE "4:cjc085_0883"
    INDEX 01 06:26:73
  TRACK 165 AUDIO
    TITLE "2:cjc085_0884"
    INDEX 01 06:29:20
  TRACK 166 AUDIO
    TITLE "0:"
    INDEX 01 06:32:26
  TRACK 167 AUDIO
    TITLE "3:cjc085_0885"
    INDEX 01 06:32:46
  TRACK 168 AUDIO
    TITLE "0:"
    INDEX 01 06:35:31
  TRACK 169 AUDIO
    TITLE "4:cjc085_0886"
    INDEX 01 06:35:74
  TRACK 170 AUDIO
    TITLE "2:cjc085_0887"
    INDEX 01 06:37:71
  TRACK 171 AUDIO
    TITLE "0:"
    INDEX 01 06:42:17
  TRACK 172 AUDIO
    TITLE "3:cjc085_0888"
    INDEX 01 06:42:74
  TRACK 173 AUDIO
    TITLE "0:"
    INDEX 01 06:46:52
  TRACK 174 AUDIO
    TITLE "4:cjc085_0889"
    INDEX 01 06:47:36
  TRACK 175 AUDIO
    TITLE "2:cjc085_0890"
    INDEX 01 06:49:66
  TRACK 176 AUDIO
    TITLE "0:"
    INDEX 01 06:52:66
  TRACK 177 AUDIO
    TITLE "3:cjc085_0891"
    INDEX 01 06:52:74
  TRACK 178 AUDIO
    TITLE "0:"
    INDEX 01 06:55:69
  TRACK 179 AUDIO
    TITLE "4:cjc085_0892"
    INDEX 01 06:57:21
  TRACK 180 AUDIO
    TITLE "2:cjc085_0893"
    INDEX 01 06:59:47
  TRACK 181 AUDIO
    TITLE "0:"
    INDEX 01 07:02:73
  TRACK 182 AUDIO
    TITLE "3:cjc085_0894"
    INDEX 01 07:03:23
  TRACK 183 AUDIO
    TITLE "0:"
    INDEX 01 07:06:16
  TRACK 184 AUDIO
    TITLE "4:cjc085_0895"
    INDEX 01 07:07:15
  TRACK 185 AUDIO
    TITLE "2:cjc085_0896"
    INDEX 01 07:09:43
  TRACK 186 AUDIO
    TITLE "0:"
    INDEX 01 07:14:17
  TRACK 187 AUDIO
    TITLE "3:cjc085_0897"
    INDEX 01 07:15:01
  TRACK 188 AUDIO
    TITLE "0:"
    INDEX 01 07:18:13
  TRACK 189 AUDIO
    TITLE "4:cjc085_0898"
    INDEX 01 07:19:26
  TRACK 190 AUDIO
    TITLE "2:cjc085_0899"
    INDEX 01 07:21:46
  TRACK 191 AUDIO
    TITLE "0:"
    INDEX 01 07:25:34
  TRACK 192 AUDIO
    TITLE "3:cjc085_0900"
    INDEX 01 07:25:50
  TRACK 193 AUDIO
    TITLE "0:"
    INDEX 01 07:28:64
  TRACK 194 AUDIO
    TITLE "4:cjc085_0901"
    INDEX 01 07:29:64
  TRACK 195 AUDIO
    TITLE "2:cjc085_0902"
    INDEX 01 07:32:11
  TRACK 196 AUDIO
    TITLE "0:"
    INDEX 01 07:35:35
  TRACK 197 AUDIO
    TITLE "3:cjc085_0903"
    INDEX 01 07:35:66
  TRACK 198 AUDIO
    TITLE "0:"
    INDEX 01 07:39:13
  TRACK 199 AUDIO
    TITLE "4:cjc085_0904"
    INDEX 01 07:41:12
  TRACK 200 AUDIO
    TITLE "2:cjc085_0905"
    INDEX 01 07:43:54
  TRACK 201 AUDIO
    TITLE "0:"
    INDEX 01 07:47:56
  TRACK 202 AUDIO
    TITLE "3:cjc085_0906"
    INDEX 01 07:47:62
  TRACK 203 AUDIO
    TITLE "0:"
    INDEX 01 07:51:46
  TRACK 204 AUDIO
    TITLE "4:cjc085_0907"
    INDEX 01 07:52:25
  TRACK 205 AUDIO
    TITLE "2:cjc085_0908"
    INDEX 01 07:54:50
  TRACK 206 AUDIO
    TITLE "0:"
    INDEX 01 07:58:65
  TRACK 207 AUDIO
    TITLE "3:cjc085_0909"
    INDEX 01 07:59:33
  TRACK 208 AUDIO
    TITLE "0:"
    INDEX 01 08:03:14
  TRACK 209 AUDIO
    TITLE "4:cjc085_0910"
    INDEX 01 08:03:74
  TRACK 210 AUDIO
    TITLE "2:cjc085_0911"
    INDEX 01 08:06:41
  TRACK 211 AUDIO
    TITLE "0:"
    INDEX 01 08:10:61
  TRACK 212 AUDIO
    TITLE "3:cjc085_0912"
    INDEX 01 08:10:70
  TRACK 213 AUDIO
    TITLE "0:"
    INDEX 01 08:14:17
  TRACK 214 AUDIO
    TITLE "4:cjc085_0913"
    INDEX 01 08:14:64
  TRACK 215 AUDIO
    TITLE "2:cjc085_0914"
    INDEX 01 08:17:37
  TRACK 216 AUDIO
    TITLE "0:"
    INDEX 01 08:19:54
  TRACK 217 AUDIO
    TITLE "3:cjc085_0915"
    INDEX 01 08:21:06
  TRACK 218 AUDIO
    TITLE "0:"
    INDEX 01 08:23:55
  TRACK 219 AUDIO
    TITLE "4:cjc085_0916"
    INDEX 01 08:24:18
  TRACK 220 AUDIO
    TITLE "2:cjc085_0917"
    INDEX 01 08:26:30
  TRACK 221 AUDIO
    TITLE "0:"
    INDEX 01 08:32:43
  TRACK 222 AUDIO
    TITLE "3:cjc085_0918"
    INDEX 01 08:32:60
  TRACK 223 AUDIO
    TITLE "0:"
    INDEX 01 08:37:54
  TRACK 224 AUDIO
    TITLE "4:cjc085_0919"
    INDEX 01 08:38:47
  TRACK 225 AUDIO
    TITLE "2:cjc085_0920"
    INDEX 01 08:41:04
  TRACK 226 AUDIO
    TITLE "0:"
    INDEX 01 08:44:50
  TRACK 227 AUDIO
    TITLE "3:cjc085_0921"
    INDEX 01 08:45:02
  TRACK 228 AUDIO
    TITLE "0:"
    INDEX 01 08:49:04
  TRACK 229 AUDIO
    TITLE "4:cjc085_0922"
    INDEX 01 08:51:34
  TRACK 230 AUDIO
    TITLE "2:cjc085_0923"
    INDEX 01 08:53:37
  TRACK 231 AUDIO
    TITLE "0:"
    INDEX 01 08:57:13
  TRACK 232 AUDIO
    TITLE "3:cjc085_0924"
    INDEX 01 08:57:64
  TRACK 233 AUDIO
    TITLE "0:"
    INDEX 01 09:01:58
  TRACK 234 AUDIO
    TITLE "4:cjc085_0925"
    INDEX 01 09:02:67
  TRACK 235 AUDIO
    TITLE "2:cjc085_0926"
    INDEX 01 09:05:11
  TRACK 236 AUDIO
    TITLE "0:"
    INDEX 01 09:09:16
  TRACK 237 AUDIO
    TITLE "3:cjc085_0927"
    INDEX 01 09:09:56
  TRACK 238 AUDIO
    TITLE "0:"
    INDEX 01 09:13:04
  TRACK 239 AUDIO
    TITLE "4:cjc085_0928"
    INDEX 01 09:13:61
  TRACK 240 AUDIO
    TITLE "2:cjc085_0929"
    INDEX 01 09:16:01
  TRACK 241 AUDIO
    TITLE "0:"
    INDEX 01 09:18:54
  TRACK 242 AUDIO
    TITLE "3:cjc085_0930"
    INDEX 01 09:18:68
  TRACK 243 AUDIO
    TITLE "0:"
    INDEX 01 09:21:47
